<svg xmlns="http://www.w3.org/2000/svg" viewBox="0 -0.5 20 20" shape-rendering="crispEdges"><path stroke="#474747" d="M17 0h3"/><path stroke="#303030" d="M16 1h1m2 0h1m-5 1h1m3 0h1m-6 1h1m3 0h1m-6 1h1m2 1h1m-2 1h1m-6 1h1M9 8h1M8 9h1m3 0h1m-9 2h1m5 0h1m-8 1h1m-1 1h1m2 0h1m-4 1h1m-2 1h1m2 0h2m-6 1h1m-2 1h1m-1 1h1"/><path stroke="#a9acab" d="M17 1h2m-3 1h1"/><path stroke="#969797" d="M17 2h2m-2 1h1m-2 1h1m-2 1h1m-2 1h1m-2 1h1m-2 1h1"/><path stroke="#999fa1" d="M15 3h1m-2 1h1m-2 1h1m-2 1h1m-2 1h1m-2 1h1M9 9h1m-2 1h1m-2 1h1m-2 1h1"/><path stroke="#6a6b6b" d="M16 3h1m-2 1h1m-2 1h1m-2 1h1m-2 1h1m-2 1h1m-2 1h1m-2 1h1"/><path stroke="#131313" d="M17 4h1m-7 2h1m2 1h1m-2 1h1m-7 2h1m3 0h1m-6 1h1m-2 1h1m3 0h1m-2 1h1m-2 1h1m-4 1h1m3 0h1m-4 1h3m-4 1h1m-2 1h1m-3 1h2"/><path stroke="#373737" d="M12 5h1"/><path stroke="#7d8388" d="M11 9h1m-2 1h1m-2 1h1m-2 1h1m-2 1h1"/><path stroke="#4f5555" d="M8 11h1"/><path stroke="#666" d="M4 12h1m-1 1h2"/><path stroke="#3f4445" d="M7 12h1"/><path stroke="#3a3b3a" d="M4 14h2"/><path stroke="#353535" d="M6 14h1"/><path stroke="#3d1f00" d="M3 15h1m-2 1h1m-2 1h1"/><path stroke="#232323" d="M7 15h1"/><path stroke="#472e0b" d="M3 16h1m-2 1h1"/><path stroke="#271601" d="M4 16h1m-2 1h1m-2 1h1"/><path stroke="#633d0b" d="M1 18h1"/></svg>